<?xml version="1.0" encoding="UTF-8" standalone="no"?>
<svg
   xmlns:dc="http://purl.org/dc/elements/1.1/"
   xmlns:cc="http://creativecommons.org/ns#"
   xmlns:rdf="http://www.w3.org/1999/02/22-rdf-syntax-ns#"
   xmlns:svg="http://www.w3.org/2000/svg"
   xmlns="http://www.w3.org/2000/svg"
   xmlns:sodipodi="http://sodipodi.sourceforge.net/DTD/sodipodi-0.dtd"
   xmlns:inkscape="http://www.inkscape.org/namespaces/inkscape"
   width="301.92395"
   height="27.8179"
   viewBox="0 0 79.884048 7.3601527"
   version="1.1"
   id="svg8"
   inkscape:version="1.0.2 (e86c8708, 2021-01-15)"
   sodipodi:docname="name_logo3.svg">
  <defs
     id="defs2" />
  <sodipodi:namedview
     id="base"
     pagecolor="#ffffff"
     bordercolor="#666666"
     borderopacity="1.0"
     inkscape:pageopacity="0.0"
     inkscape:pageshadow="2"
     inkscape:zoom="2.4450474"
     inkscape:cx="186.70816"
     inkscape:cy="51.941742"
     inkscape:document-units="mm"
     inkscape:current-layer="layer1"
     inkscape:document-rotation="0"
     showgrid="false"
     fit-margin-top="0"
     fit-margin-left="0"
     fit-margin-right="0"
     fit-margin-bottom="0"
     units="px"
     inkscape:window-width="1600"
     inkscape:window-height="851"
     inkscape:window-x="2314"
     inkscape:window-y="361"
     inkscape:window-maximized="0" />
  <metadata
     id="metadata5">
    <rdf:RDF>
      <cc:Work
         rdf:about="">
        <dc:format>image/svg+xml</dc:format>
        <dc:type
           rdf:resource="http://purl.org/dc/dcmitype/StillImage" />
        <dc:title></dc:title>
      </cc:Work>
    </rdf:RDF>
  </metadata>
  <g
     inkscape:label="Layer 1"
     inkscape:groupmode="layer"
     id="layer1"
     transform="translate(-31.124701,-128.40268)">
    <text
       xml:space="preserve"
       style="font-style:normal;font-weight:normal;font-size:10.5833px;line-height:1.25;font-family:sans-serif;letter-spacing:1.00542px;word-spacing:0.529167px;fill:#000000;fill-opacity:1;stroke:none;stroke-width:0.264583"
       x="30.877291"
       y="135.69757"
       id="text835"><tspan
         sodipodi:role="line"
         id="tspan833"
         x="30.877291"
         y="135.69757"
         style="font-style:normal;font-variant:normal;font-weight:bold;font-stretch:normal;font-size:9.87778px;font-family:Lato;-inkscape-font-specification:'Lato, Bold';font-variant-ligatures:normal;font-variant-caps:normal;font-variant-numeric:normal;font-variant-east-asian:normal;stroke-width:0.264583"
         rotate="0 0 0 0 0 0 0 0 0 0 0 0 0 0">Joshua Mouton</tspan></text>
    <g
       id="g901">
      <path
         style="fill:#132779;stroke:#132779;stroke-width:0.40899"
         d="m 118.35661,512.66218 c -0.54106,-0.2445 -0.72926,-3.42203 -0.2045,-3.45271 0.16871,-0.01 1.3599,-0.0559 2.64709,-0.10226 2.76038,-0.0995 3.85785,-0.94146 4.42738,-3.39673 0.20355,-0.8775 0.37448,-5.69046 0.37984,-10.69548 l 0.01,-9.10003 h 2.27497 2.27497 l -0.12777,10.327 c -0.12257,9.90637 -0.16727,10.40723 -1.09755,12.29669 -1.41644,2.87689 -3.39547,4.04986 -7.11962,4.21979 -1.62433,0.0741 -3.18339,0.0308 -3.46457,-0.0963 z"
         id="path865"
         transform="scale(0.26458333)" />
      <path
         style="fill:#132779;stroke:#132779;stroke-width:0.40899"
         d="m 144.09267,512.44289 c -1.87748,-0.54086 -4.68165,-3.46027 -5.29481,-5.51238 -1.20453,-4.03132 -0.39163,-8.14685 2.10163,-10.64011 4.25579,-4.25578 11.90152,-3.20303 14.67191,2.02021 1.29596,2.44338 1.29596,7.5295 0,9.97287 -2.01816,3.80499 -6.75315,5.52075 -11.47873,4.15941 z m 6.41984,-3.66375 c 1.29806,-1.20933 1.68802,-2.48498 1.68802,-5.52185 0,-2.97347 -0.75377,-5.19958 -1.98344,-5.85768 -1.04779,-0.56076 -4.3682,-0.57355 -5.40103,-0.0208 -2.91805,1.56169 -2.97577,10.12896 -0.0796,11.81582 0.39365,0.22928 1.64727,0.42248 2.78581,0.42932 1.54814,0.009 2.30209,-0.20371 2.99024,-0.84482 z"
         id="path867"
         transform="scale(0.26458333)" />
      <path
         style="fill:#132779;stroke:#132779;stroke-width:0.40899"
         d="m 164.96478,511.89293 -2.16389,-1.0074 0.67722,-1.03356 c 0.76286,-1.16428 1.54579,-1.27257 3.03707,-0.42007 0.56236,0.32147 1.86817,0.59102 2.90179,0.59899 2.24965,0.0174 3.36432,-0.93815 3.16147,-2.71002 -0.11788,-1.02965 -0.48286,-1.2996 -3.22851,-2.38786 -4.15738,-1.64782 -5.17488,-2.38553 -5.64658,-4.09388 -0.72496,-2.62559 0.41771,-5.0774 2.93403,-6.29553 2.21536,-1.07243 5.23091,-1.10198 7.49591,-0.0734 2.13496,0.96949 2.36905,1.36728 1.46303,2.48617 -0.7058,0.87162 -0.78272,0.87989 -2.29721,0.2471 -3.01773,-1.26089 -5.96595,-0.46602 -5.96595,1.60849 0,1.18302 1.04104,1.93434 4.17354,3.01208 2.90625,0.9999 4.16695,1.82973 4.76121,3.13399 0.70214,1.54103 0.57657,2.94956 -0.42125,4.72493 -1.80172,3.20572 -6.63473,4.18726 -10.88188,2.21001 z"
         id="path869"
         transform="scale(0.26458333)" />
      <path
         style="fill:#132779;stroke:#132779;stroke-width:0.40899"
         d="m 184.51074,499.00265 v -13.49667 h 2.24945 2.24944 v 5.33769 5.33768 l 1.46097,-1.11433 c 1.04184,-0.79465 2.0685,-1.15912 3.57867,-1.27044 2.87465,-0.21189 4.6979,0.76002 5.90085,3.14554 0.8453,1.67628 0.92023,2.38392 0.92023,8.69103 v 6.86617 h -2.01802 -2.01802 l -0.12918,-6.91109 c -0.11427,-6.1135 -0.2191,-7.01031 -0.9083,-7.77081 -1.01973,-1.12522 -3.65174,-1.14751 -5.45798,-0.0462 l -1.32922,0.81044 v 6.95884 6.95884 h -2.24944 -2.24945 z"
         id="path871"
         transform="scale(0.26458333)" />
      <path
         style="fill:#132779;stroke:#132779;stroke-width:0.40899"
         d="m 212.2803,511.97993 c -2.50421,-1.67292 -2.81981,-2.88474 -2.82053,-10.83008 l -6.3e-4,-7.05508 h 2.04495 2.04495 v 6.57073 c 0,6.36268 0.24587,7.89363 1.39044,8.65789 0.87765,0.58602 3.7332,0.30308 5.05115,-0.50049 l 1.32922,-0.81044 v -6.95885 -6.95884 h 2.04495 2.04495 v 9.20228 9.20227 h -1.62817 c -1.39562,0 -1.66482,-0.14603 -1.88479,-1.02247 -0.27265,-1.0863 -0.75759,-1.31383 -1.21675,-0.5709 -0.50588,0.81854 -3.62414,1.98424 -5.33231,1.99338 -1.07537,0.006 -2.17667,-0.32433 -3.06743,-0.9194 z"
         id="path873"
         transform="scale(0.26458333)" />
      <path
         style="fill:#132779;stroke:#132779;stroke-width:0.40899"
         d="m 236.4919,512.41416 c -3.32054,-1.78457 -3.46139,-6.22857 -0.26382,-8.3237 1.3447,-0.88108 4.95451,-1.80511 7.07498,-1.81103 l 1.73821,-0.005 v -1.84045 c 0,-2.4219 -1.00991,-3.47642 -3.32937,-3.47642 -0.93294,0 -2.51338,0.40952 -3.5193,0.9119 l -1.82589,0.91189 -0.7751,-0.9572 c -0.4263,-0.52647 -0.77509,-1.1131 -0.77509,-1.30365 0,-0.89373 3.80913,-2.53035 6.36714,-2.73569 3.49355,-0.28042 5.56166,0.60495 6.95108,2.9758 0.95116,1.62304 0.99643,2.01918 0.99643,8.71943 v 7.01914 h -1.42367 c -1.17749,0 -1.46805,-0.1768 -1.6803,-1.02247 -0.32021,-1.2758 -0.42875,-1.27207 -2.42359,0.0835 -1.89471,1.28749 -5.49953,1.7203 -7.11171,0.85385 z m 7.22015,-3.18227 c 1.20437,-0.73432 1.32922,-0.99603 1.32922,-2.78634 v -1.9759 l -2.51005,0.29596 c -1.44147,0.16996 -2.96497,0.63404 -3.57866,1.09011 -1.27156,0.94496 -1.5779,2.59948 -0.65262,3.52476 0.92833,0.92833 3.77397,0.8502 5.41211,-0.14859 z"
         id="path875"
         transform="scale(0.26458333)" />
      <path
         style="fill:#132779;stroke:#132779;stroke-width:0.40899"
         d="m 271.21663,499.20715 v -13.29218 h 1.96678 c 1.08173,0 2.2665,0.23006 2.63282,0.51124 0.68485,0.52568 9.30606,16.30265 9.30606,17.03027 0,1.66998 1.32824,-0.29324 5.29934,-7.83281 2.51628,-4.77742 4.87311,-8.91628 5.2374,-9.19746 0.36428,-0.28118 1.54738,-0.51124 2.62911,-0.51124 h 1.96678 v 13.29218 13.29217 h -2.03768 -2.03767 l -0.10952,-9.80688 -0.10952,-9.80688 -4.29653,8.06868 -4.29653,8.06867 h -1.55924 -1.55924 l -4.36898,-8.10581 -4.36898,-8.10582 -0.10952,9.84402 -0.10952,9.84402 h -2.03768 -2.03768 z"
         id="path877"
         transform="scale(0.26458333)" />
      <path
         style="fill:#132779;stroke:#132779;stroke-width:0.40899"
         d="m 314.01223,512.30922 c -3.58478,-1.27794 -5.55954,-4.47908 -5.55954,-9.01217 0,-3.43977 0.85779,-5.58714 2.97408,-7.44527 3.832,-3.36454 10.87709,-2.6308 13.55212,1.41144 2.2976,3.4719 2.30763,8.68539 0.0232,12.04727 -2.05903,3.03013 -7.06788,4.39687 -10.98983,2.99873 z m 6.2354,-3.33976 c 1.32384,-0.92726 2.09275,-2.99679 2.09275,-5.63265 0,-2.56194 -0.50263,-4.14385 -1.73449,-5.45888 -1.26253,-1.34777 -4.85685,-1.31889 -6.22575,0.05 -2.3971,2.39709 -2.3971,8.34112 0,10.73822 1.18893,1.18893 4.36842,1.35329 5.86749,0.3033 z"
         id="path879"
         transform="scale(0.26458333)" />
      <path
         style="fill:#132779;stroke:#132779;stroke-width:0.40899"
         d="m 337.47302,512.19195 c -0.93163,-0.4654 -1.7528,-1.35231 -2.3517,-2.53997 -0.8453,-1.67628 -0.92022,-2.38393 -0.92022,-8.69104 v -6.86617 h 2.01801 2.01802 l 0.12918,6.9111 c 0.11427,6.1135 0.2191,7.01031 0.9083,7.77081 1.01973,1.12521 3.65174,1.1475 5.45798,0.0462 l 1.32922,-0.81044 v -6.95885 -6.95884 h 2.24944 2.24945 v 9.20228 9.20227 h -1.64609 c -1.37949,0 -1.70904,-0.16559 -2.03482,-1.02247 -0.45347,-1.1927 -0.9084,-1.28584 -1.68813,-0.34564 -1.45885,1.75909 -5.27178,2.28308 -7.71864,1.06074 z"
         id="path881"
         transform="scale(0.26458333)" />
      <path
         style="fill:#132779;stroke:#132779;stroke-width:0.40899"
         d="m 363.44388,512.52167 c -0.44989,-0.18413 -1.18607,-0.74337 -1.63596,-1.24276 -0.73489,-0.81573 -0.83116,-1.58918 -0.94775,-7.61458 l -0.12977,-6.70663 h -1.40394 c -1.26779,0 -1.40394,-0.11199 -1.40394,-1.15484 0,-0.99409 0.21319,-1.20757 1.53165,-1.53371 1.48639,-0.36768 1.54473,-0.45219 1.97443,-2.86003 0.55823,-3.12798 0.7672,-3.4492 2.24392,-3.4492 h 1.20283 v 3.06743 3.06742 h 2.45394 2.45394 v 1.43147 1.43146 h -2.45394 -2.45394 v 5.54826 c 0,6.65521 0.23819,7.32769 2.46906,6.97096 1.32437,-0.21178 1.6738,-0.10768 2.21042,0.65846 0.89987,1.28473 0.81845,1.51205 -0.78094,2.18032 -1.53914,0.64309 -4.02711,0.73924 -5.33001,0.20597 z"
         id="path883"
         transform="scale(0.26458333)" />
      <path
         style="fill:#132779;stroke:#132779;stroke-width:0.40899"
         d="m 382.31356,512.30922 c -5.89555,-2.10171 -7.70923,-11.10995 -3.20411,-15.91433 3.6409,-3.88275 11.24667,-3.44858 14.13847,0.80708 2.31964,3.41366 2.32078,8.75192 0.003,12.09707 -2.13697,3.08365 -6.98664,4.41843 -10.93695,3.01018 z m 6.23541,-3.33976 c 1.32384,-0.92726 2.09275,-2.99679 2.09275,-5.63265 0,-2.56194 -0.50263,-4.14385 -1.7345,-5.45888 -1.17597,-1.25537 -4.62257,-1.30208 -6.17156,-0.0836 -2.54555,2.00233 -2.54555,9.00319 0,11.00552 1.32487,1.04215 4.43794,1.13299 5.81331,0.16965 z"
         id="path885"
         transform="scale(0.26458333)" />
      <path
         style="fill:#132779;stroke:#132779;stroke-width:0.40899"
         d="m 402.91142,503.27353 v -9.22579 l 1.73821,0.12576 c 1.44497,0.10455 1.76025,0.28101 1.8689,1.046 0.16311,1.14846 0.15438,1.14916 2.15214,-0.17289 2.36104,-1.56247 5.41505,-1.76128 7.30632,-0.47564 2.74388,1.86523 3.07238,2.9703 3.23225,10.87328 l 0.14272,7.05507 h -2.28991 -2.28992 v -6.95283 c 0,-6.40751 -0.0641,-7.01698 -0.81798,-7.77081 -1.10171,-1.10171 -3.76454,-1.08578 -5.57534,0.0334 l -1.37749,0.85134 v 6.91947 6.91947 h -2.04495 -2.04495 z"
         id="path887"
         transform="scale(0.26458333)" />
    </g>
  </g>
</svg>
