<?xml version="1.0" encoding="UTF-8" standalone="no"?>
<svg
   xmlns:dc="http://purl.org/dc/elements/1.1/"
   xmlns:cc="http://creativecommons.org/ns#"
   xmlns:rdf="http://www.w3.org/1999/02/22-rdf-syntax-ns#"
   xmlns:svg="http://www.w3.org/2000/svg"
   xmlns="http://www.w3.org/2000/svg"
   xmlns:sodipodi="http://sodipodi.sourceforge.net/DTD/sodipodi-0.dtd"
   xmlns:inkscape="http://www.inkscape.org/namespaces/inkscape"
   width="77.923409mm"
   height="7.6889424mm"
   viewBox="0 0 77.923409 7.6889424"
   version="1.1"
   id="svg906"
   inkscape:version="1.0.2 (e86c8708, 2021-01-15)"
   sodipodi:docname="name_logo.svg">
  <defs
     id="defs900" />
  <sodipodi:namedview
     id="base"
     pagecolor="#ffffff"
     bordercolor="#666666"
     borderopacity="1.0"
     inkscape:pageopacity="0.0"
     inkscape:pageshadow="2"
     inkscape:zoom="3.6534461"
     inkscape:cx="144.31218"
     inkscape:cy="-26.487422"
     inkscape:document-units="mm"
     inkscape:current-layer="layer1"
     inkscape:document-rotation="0"
     showgrid="false"
     fit-margin-top="0"
     fit-margin-left="0"
     fit-margin-right="0"
     fit-margin-bottom="0"
     inkscape:window-width="1663"
     inkscape:window-height="1092"
     inkscape:window-x="2211"
     inkscape:window-y="104"
     inkscape:window-maximized="0" />
  <metadata
     id="metadata903">
    <rdf:RDF>
      <cc:Work
         rdf:about="">
        <dc:format>image/svg+xml</dc:format>
        <dc:type
           rdf:resource="http://purl.org/dc/dcmitype/StillImage" />
        <dc:title />
      </cc:Work>
    </rdf:RDF>
  </metadata>
  <g
     inkscape:label="Layer 1"
     inkscape:groupmode="layer"
     id="layer1"
     transform="translate(-81.297228,-199.25036)">
    <rect
       style="fill:#ffffff;stroke-width:0.264583"
       id="rect12"
       width="61.988094"
       height="12.095239"
       x="94.98391"
       y="101.83363" />
    <g
       id="g843">
      <g
         id="g920"
         transform="translate(20.377951,34.939984)"
         style="fill:#132779;fill-opacity:1">
        <path
           id="path3116"
           style="font-style:normal;font-variant:normal;font-weight:normal;font-stretch:normal;font-size:11.9944px;line-height:1.25;font-family:'Bauhaus 93';-inkscape-font-specification:'Bauhaus 93, Normal';font-variant-ligatures:normal;font-variant-caps:normal;font-variant-numeric:normal;font-variant-east-asian:normal;fill:#132779;fill-opacity:1;stroke:none;stroke-width:1.03946"
           d="m 387.67578,621.01562 c -2.39282,0 -4.33924,0.78534 -5.83984,2.35352 -1.5006,1.5682 -2.25,3.58855 -2.25,6.0625 v 19.95508 h 8.23242 v -18.00781 c 0,-1.47354 0.40568,-2.21094 1.2168,-2.21094 0.43265,0 0.72243,0.14984 0.87109,0.44726 0.14866,0.2974 0.22461,0.88496 0.22461,1.76368 v 18.00781 h 8.23242 v -18.15039 c 0,-1.37892 0.40566,-2.06836 1.2168,-2.06836 0.43248,0 0.71625,0.14984 0.85156,0.44726 0.14866,0.2839 0.22266,0.87146 0.22266,1.76368 v 18.00781 h 8.23242 v -19.24414 c 0,-2.9471 -0.66148,-5.20524 -1.98633,-6.77344 -1.32485,-1.56818 -3.23129,-2.35352 -5.71875,-2.35352 -1.5682,10e-6 -2.88516,0.30571 -3.95312,0.91407 -1.068,0.59482 -2.06914,1.59404 -3.00196,3 -1.52761,-2.60914 -3.7118,-3.91407 -6.55078,-3.91407 z m -154.6914,0.68946 v 17.58203 c 0,1.74395 -0.54155,2.61523 -1.62305,2.61523 -0.33797,0 -0.70967,-0.088 -1.11524,-0.26367 v 7.97071 c 0.95984,0.31095 1.79718,0.46679 2.51368,0.46679 2.44691,0 4.46923,-0.91322 6.06445,-2.73828 1.59522,-1.83854 2.39258,-4.16464 2.39258,-6.97656 v -17.08789 l 0.0176,-1.42383 h -0.0176 v -0.14453 z m 61.77929,0 v 27.68164 h 7.58399 v -10.99219 c 0,-1.25725 0.42565,-1.88476 1.27734,-1.88476 0.52723,0 0.87894,0.14788 1.05469,0.44531 0.18925,0.29742 0.2832,0.87895 0.2832,1.74414 v 10.6875 h 7.58399 v -12.81641 c -10e-6,-2.39282 -0.57356,-4.29326 -1.72266,-5.69922 -1.13559,-1.40596 -2.67829,-2.10742 -4.625,-2.10742 -1.28429,0 -2.56728,0.46563 -3.85156,1.39844 v -8.45703 z m 176.98438,0 -7.58399,0.004 v 16.60743 c 0,2.87954 0.58154,5.19162 1.74414,6.93554 0.91929,1.36542 2.13626,2.44654 3.65039,3.24414 1.52761,0.79761 3.14832,1.19727 4.86524,1.19727 0.18925,0 0.48101,-0.008 0.87305,-0.0234 v -7.96875 c -1.35189,0 -2.28512,-0.30573 -2.79883,-0.91406 -0.50019,-0.60835 -0.75,-1.71548 -0.75,-3.32422 h 3.40625 v -8.00977 h -3.40625 z m -214.42774,7.03711 c -3.05525,0 -5.62513,1.01512 -7.70703,3.04297 -2.0819,2.01431 -3.12305,4.50033 -3.12305,7.46093 0,2.90656 1.04115,5.39451 3.12305,7.46289 2.0819,2.05486 4.58985,3.08204 7.52344,3.08204 2.93358,0 5.43552,-1.02718 7.5039,-3.08204 2.0819,-2.05487 3.12305,-4.54282 3.12305,-7.46289 0,-2.87949 -1.02717,-5.34553 -3.08203,-7.40039 -2.04134,-2.06841 -4.49533,-3.10351 -7.36133,-3.10351 z m 167.59961,0 c -3.05527,0 -5.62319,1.01512 -7.70508,3.04297 -2.08191,2.01431 -3.12304,4.50033 -3.12304,7.46093 0,2.90656 1.04113,5.39451 3.12304,7.46289 2.08189,2.05486 4.58985,3.08204 7.52344,3.08204 2.93359,0 5.43357,-1.02718 7.50195,-3.08204 2.08189,-2.05487 3.12305,-4.54282 3.12305,-7.46289 0,-2.87949 -1.02718,-5.34553 -3.08203,-7.40039 -2.04135,-2.06841 -4.49534,-3.10351 -7.36133,-3.10351 z m 65.8711,0 c -3.05527,0 -5.62319,1.01512 -7.70508,3.04297 -2.08192,2.01431 -3.12305,4.50033 -3.12305,7.46093 0,2.90656 1.04113,5.39451 3.12305,7.46289 2.08189,2.05486 4.58984,3.08204 7.52344,3.08204 2.93359,0 5.43356,-1.02718 7.50195,-3.08204 2.08189,-2.05487 3.12305,-4.54282 3.12305,-7.46289 0,-2.87949 -1.02718,-5.34553 -3.08204,-7.40039 -2.04134,-2.06841 -4.49533,-3.10351 -7.36132,-3.10351 z m 24.96484,0 c -2.52803,0 -4.66428,0.90527 -6.4082,2.71679 -1.74393,1.798 -2.61524,4.01615 -2.61524,6.65235 v 11.27539 h 7.58399 v -11.41797 c 0,-1.16261 0.4736,-1.74414 1.41992,-1.74414 0.95985,0 1.43945,0.58153 1.43945,1.74414 v 11.41797 h 7.58399 v -10.66797 c 0,-2.92009 -0.68342,-5.1982 -2.04883,-6.83398 -1.74393,-2.09542 -4.06205,-3.14258 -6.95508,-3.14258 z m -163.53906,0.0215 c -2.93359,0 -5.42756,1.01923 -7.48242,3.06055 -2.04135,2.04135 -3.0625,4.5293 -3.0625,7.46289 -10e-6,3.0147 1.01514,5.52263 3.04296,7.52344 2.02783,2.00078 4.56178,3.00195 7.60352,3.00195 0.51372,0 1.08126,-0.0538 1.70312,-0.16211 v -7.84766 c -0.56779,0.35148 -1.18132,0.52735 -1.84375,0.52735 -0.81113,0 -1.48057,-0.27175 -2.00781,-0.8125 -0.52723,-0.54075 -0.79101,-1.23021 -0.79101,-2.06836 0,-0.79763 0.28978,-1.48704 0.87109,-2.06836 0.58131,-0.58132 1.27075,-0.87109 2.06836,-0.87109 0.87873,0 1.57613,0.31771 2.08984,0.95312 0.52724,0.63536 0.78907,1.48669 0.78907,2.55469 v 9.36914 h 7.58593 v -9.91602 c 0,-3.3121 -0.9472,-5.92195 -2.83984,-7.82812 -1.87912,-1.91967 -4.455,-2.87891 -7.72656,-2.87891 z m -66.57422,0.68945 c -2.63617,0 -4.69652,0.72343 -6.1836,2.16993 -0.85168,0.82466 -1.41923,1.65596 -1.70312,2.49414 -0.27038,0.83815 -0.46022,2.29096 -0.56836,4.35937 -0.0811,1.27076 -0.38487,2.16207 -0.91211,2.67578 -0.51371,0.50021 -1.379,0.75 -2.5957,0.75 h -0.34571 v 8.03125 h 1.05469 c 2.60914,0 4.62349,-0.41966 6.04297,-1.25781 2.67673,-1.60874 4.19148,-4.36649 4.54297,-8.27344 0.10815,-1.17616 0.35795,-1.95952 0.75,-2.35156 0.40557,-0.40557 1.14295,-0.60937 2.21094,-0.60937 v -7.98829 z m 32.67773,0 v 10.66602 c 0,2.90653 0.68148,5.17672 2.04688,6.8125 1.75745,2.09542 4.07556,3.14453 6.95508,3.14453 2.52802,0 4.66427,-0.89924 6.4082,-2.69726 1.74393,-1.81153 2.61719,-4.02971 2.61719,-6.65235 v -11.27344 h -7.58399 v 11.41602 c 0,1.1491 -0.4736,1.72266 -1.41992,1.72266 -0.95984,0 -1.43945,-0.57356 -1.43945,-1.72266 v -11.41602 z m 122.20703,0 v 10.66602 c 0,2.90653 0.68149,5.17672 2.04688,6.8125 1.75745,2.09542 4.07753,3.14453 6.95703,3.14453 2.52803,0 4.6623,-0.89924 6.40625,-2.69726 1.74392,-1.81153 2.61719,-4.02971 2.61719,-6.65235 v -11.27344 h -7.58399 v 11.41602 c 0,1.1491 -0.4736,1.72266 -1.41992,1.72266 -0.95985,0 -1.43945,-0.57356 -1.43945,-1.72266 v -11.41602 z m -183.41015,6.77149 c 0.82465,0 1.5201,0.29776 2.08789,0.89258 0.56779,0.58131 0.85156,1.29871 0.85156,2.15039 0,0.83817 -0.28978,1.55361 -0.87109,2.14844 -0.56779,0.59482 -1.25723,0.89257 -2.06836,0.89257 -0.79761,0 -1.48705,-0.29775 -2.06836,-0.89257 -0.56779,-0.59483 -0.85156,-1.31027 -0.85156,-2.14844 0,-0.85168 0.28377,-1.56908 0.85156,-2.15039 0.56779,-0.59482 1.25723,-0.89258 2.06836,-0.89258 z m 167.59961,0 c 0.82464,0 1.52205,0.29776 2.08984,0.89258 0.56779,0.58131 0.85156,1.29871 0.85156,2.15039 0,0.83817 -0.29175,1.55361 -0.87304,2.14844 -0.56781,0.59482 -1.25725,0.89257 -2.06836,0.89257 -0.79761,0 -1.48705,-0.29775 -2.06836,-0.89257 -0.56779,-0.59483 -0.85156,-1.31027 -0.85156,-2.14844 0,-0.85168 0.28377,-1.56908 0.85156,-2.15039 0.56778,-0.59482 1.25722,-0.89258 2.06836,-0.89258 z m 65.87109,0 c 0.82464,0 1.52203,0.29776 2.08984,0.89258 0.56779,0.58131 0.85157,1.29871 0.85157,2.15039 0,0.83817 -0.29173,1.55361 -0.87305,2.14844 -0.56779,0.59482 -1.25722,0.89257 -2.06836,0.89257 -0.79761,0 -1.48704,-0.29775 -2.06836,-0.89257 -0.56778,-0.59483 -0.85156,-1.31027 -0.85156,-2.14844 0,-0.85168 0.28378,-1.56908 0.85156,-2.15039 0.56779,-0.59482 1.25722,-0.89258 2.06836,-0.89258 z"
           transform="scale(0.26458333)" />
      </g>
    </g>
  </g>
</svg>
