<?xml version="1.0" encoding="UTF-8" standalone="no"?>
<svg
   xmlns:dc="http://purl.org/dc/elements/1.1/"
   xmlns:cc="http://creativecommons.org/ns#"
   xmlns:rdf="http://www.w3.org/1999/02/22-rdf-syntax-ns#"
   xmlns:svg="http://www.w3.org/2000/svg"
   xmlns="http://www.w3.org/2000/svg"
   xmlns:sodipodi="http://sodipodi.sourceforge.net/DTD/sodipodi-0.dtd"
   xmlns:inkscape="http://www.inkscape.org/namespaces/inkscape"
   width="72.715721mm"
   height="16.967003mm"
   viewBox="0 0 72.715721 16.967003"
   version="1.1"
   id="svg8"
   inkscape:version="1.0.2 (e86c8708, 2021-01-15)"
   sodipodi:docname="name logo.svg">
  <defs
     id="defs2" />
  <sodipodi:namedview
     id="base"
     pagecolor="#ffffff"
     bordercolor="#666666"
     borderopacity="1.0"
     inkscape:pageopacity="0.0"
     inkscape:pageshadow="2"
     inkscape:zoom="3.0171984"
     inkscape:cx="137.41554"
     inkscape:cy="34.188087"
     inkscape:document-units="mm"
     inkscape:current-layer="layer1"
     inkscape:document-rotation="0"
     showgrid="false"
     inkscape:window-width="1428"
     inkscape:window-height="855"
     inkscape:window-x="0"
     inkscape:window-y="23"
     inkscape:window-maximized="0"
     fit-margin-top="0"
     fit-margin-left="0"
     fit-margin-right="0"
     fit-margin-bottom="0" />
  <metadata
     id="metadata5">
    <rdf:RDF>
      <cc:Work
         rdf:about="">
        <dc:format>image/svg+xml</dc:format>
        <dc:type
           rdf:resource="http://purl.org/dc/dcmitype/StillImage" />
        <dc:title />
      </cc:Work>
    </rdf:RDF>
  </metadata>
  <g
     inkscape:label="Layer 1"
     inkscape:groupmode="layer"
     id="layer1"
     transform="translate(-41.508452,-119.49809)">
    <rect
       style="fill:#ffffff;stroke-width:0.264583"
       id="rect12"
       width="61.988094"
       height="12.095239"
       x="52.916668"
       y="26.458334" />
    <path
       d="m 45.396041,124.05775 v 4.93607 q 0,1.11598 -0.633104,1.84565 -0.633104,0.72432 -1.604222,0.72432 -0.28436,0 -0.665295,-0.12341 v -2.10856 q 0.160958,0.0697 0.295091,0.0697 0.429223,0 0.429223,-0.69213 v -4.65169 z"
       style="font-style:normal;font-variant:normal;font-weight:normal;font-stretch:normal;font-size:11.9944px;line-height:1.25;font-family:'Bauhaus 93';-inkscape-font-specification:'Bauhaus 93, Normal';font-variant-ligatures:normal;font-variant-caps:normal;font-variant-numeric:normal;font-variant-east-asian:normal;fill:#000000;fill-opacity:1;stroke:none;stroke-width:0.275023"
       id="path3116" />
    <path
       d="m 49.039072,125.9195 q 1.137442,0 1.947601,0.8209 0.815524,0.81552 0.815524,1.95832 0,1.1589 -0.826254,1.97443 -0.82089,0.81552 -1.985157,0.81552 -1.164268,0 -1.990523,-0.81552 -0.826255,-0.82089 -0.826255,-1.97443 0,-1.17499 0.826255,-1.97442 0.826255,-0.8048 2.038809,-0.8048 z m -0.05366,1.9798 q -0.321917,0 -0.547259,0.23607 -0.225342,0.23071 -0.225342,0.56872 0,0.33265 0.225342,0.56872 0.230707,0.23607 0.547259,0.23607 0.321917,0 0.547259,-0.23607 0.230708,-0.23607 0.230708,-0.56872 0,-0.33801 -0.225342,-0.56872 -0.225342,-0.23607 -0.552625,-0.23607 z"
       style="font-style:normal;font-variant:normal;font-weight:normal;font-stretch:normal;font-size:11.9944px;line-height:1.25;font-family:'Bauhaus 93';-inkscape-font-specification:'Bauhaus 93, Normal';font-variant-ligatures:normal;font-variant-caps:normal;font-variant-numeric:normal;font-variant-east-asian:normal;fill:#000000;fill-opacity:1;stroke:none;stroke-width:0.275023"
       id="path3118" />
    <path
       d="m 55.992488,126.10729 v 2.11392 q -0.423858,0 -0.584817,0.16096 -0.155593,0.15559 -0.198516,0.62238 -0.139496,1.55057 -1.201824,2.18904 -0.563356,0.33264 -1.598856,0.33264 h -0.278996 v -2.12465 h 0.09121 q 0.482877,0 0.686757,-0.19852 0.209247,-0.20388 0.241439,-0.70821 0.04292,-0.8209 0.150228,-1.15354 0.112671,-0.33265 0.450684,-0.65994 0.590182,-0.57408 1.636413,-0.57408 z"
       style="font-style:normal;font-variant:normal;font-weight:normal;font-stretch:normal;font-size:11.9944px;line-height:1.25;font-family:'Bauhaus 93';-inkscape-font-specification:'Bauhaus 93, Normal';font-variant-ligatures:normal;font-variant-caps:normal;font-variant-numeric:normal;font-variant-east-asian:normal;fill:#000000;fill-opacity:1;stroke:none;stroke-width:0.275023"
       id="path3120" />
    <path
       d="m 58.659037,124.05775 v 2.23733 q 0.509702,-0.37021 1.019404,-0.37021 0.772602,0 1.223287,0.55799 0.456049,0.55799 0.456049,1.50764 v 3.39087 h -2.006619 v -2.82751 q 0,-0.34337 -0.07511,-0.46141 -0.06975,-0.11804 -0.278995,-0.11804 -0.338013,0 -0.338013,0.49897 v 2.90799 h -2.006618 v -7.32362 z"
       style="font-style:normal;font-variant:normal;font-weight:normal;font-stretch:normal;font-size:11.9944px;line-height:1.25;font-family:'Bauhaus 93';-inkscape-font-specification:'Bauhaus 93, Normal';font-variant-ligatures:normal;font-variant-caps:normal;font-variant-numeric:normal;font-variant-east-asian:normal;fill:#000000;fill-opacity:1;stroke:none;stroke-width:0.275023"
       id="path3122" />
    <path
       d="m 62.532776,126.10729 h 2.006618 v 3.02066 q 0,0.45605 0.380936,0.45605 0.37557,0 0.37557,-0.45605 v -3.02066 h 2.006618 v 2.9831 q 0,1.04086 -0.692122,1.75981 -0.692123,0.71359 -1.695432,0.71359 -1.142806,0 -1.840295,-0.83162 -0.541893,-0.6492 -0.541893,-1.80273 z"
       style="font-style:normal;font-variant:normal;font-weight:normal;font-stretch:normal;font-size:11.9944px;line-height:1.25;font-family:'Bauhaus 93';-inkscape-font-specification:'Bauhaus 93, Normal';font-variant-ligatures:normal;font-variant-caps:normal;font-variant-numeric:normal;font-variant-east-asian:normal;fill:#000000;fill-opacity:1;stroke:none;stroke-width:0.275023"
       id="path3124" />
    <path
       d="m 71.449887,129.37475 v 2.07637 q -0.246803,0.043 -0.450685,0.043 -1.207189,0 -2.011983,-0.79406 -0.804793,-0.79407 -0.804793,-1.99053 0,-1.16427 0.810159,-1.97443 0.815523,-0.81015 1.979791,-0.81015 1.2984,0 2.044175,0.76187 0.751141,0.75651 0.751141,2.071 v 2.62362 h -2.006618 v -2.47876 q 0,-0.42386 -0.209247,-0.67602 -0.20388,-0.25218 -0.552625,-0.25218 -0.316551,0 -0.547259,0.23071 -0.230707,0.23071 -0.230707,0.54727 0,0.33264 0.209247,0.54725 0.209246,0.21461 0.531163,0.21461 0.262899,0 0.488241,-0.13949 z"
       style="font-style:normal;font-variant:normal;font-weight:normal;font-stretch:normal;font-size:11.9944px;line-height:1.25;font-family:'Bauhaus 93';-inkscape-font-specification:'Bauhaus 93, Normal';font-variant-ligatures:normal;font-variant-caps:normal;font-variant-numeric:normal;font-variant-east-asian:normal;fill:#000000;fill-opacity:1;stroke:none;stroke-width:0.275023"
       id="path3126" />
    <path
       d="m 77.684354,131.38137 v -5.27944 q 0,-0.98185 0.595547,-1.60423 0.595547,-0.62237 1.545203,-0.62237 1.126711,0 1.732988,1.0355 0.370206,-0.55799 0.794063,-0.79406 0.423858,-0.24144 1.046232,-0.24144 0.987213,0 1.513012,0.62237 0.525797,0.62238 0.525797,1.79201 v 5.09166 h -2.178307 v -4.76438 q 0,-0.3541 -0.05902,-0.46677 -0.05366,-0.11804 -0.225342,-0.11804 -0.321917,0 -0.321917,0.54726 v 4.80193 H 80.4743 v -4.76438 q 0,-0.34874 -0.05902,-0.46677 -0.05902,-0.11804 -0.230708,-0.11804 -0.321917,0 -0.321917,0.58481 v 4.76438 z"
       style="font-style:normal;font-variant:normal;font-weight:normal;font-stretch:normal;font-size:11.9944px;line-height:1.25;font-family:'Bauhaus 93';-inkscape-font-specification:'Bauhaus 93, Normal';font-variant-ligatures:normal;font-variant-caps:normal;font-variant-numeric:normal;font-variant-east-asian:normal;fill:#000000;fill-opacity:1;stroke:none;stroke-width:0.275023"
       id="path3128" />
    <path
       d="m 89.149976,125.9195 q 1.137442,0 1.9476,0.8209 0.815524,0.81552 0.815524,1.95832 0,1.1589 -0.826255,1.97443 -0.820889,0.81552 -1.985157,0.81552 -1.164268,0 -1.990522,-0.81552 -0.826254,-0.82089 -0.826254,-1.97443 0,-1.17499 0.826254,-1.97442 0.826254,-0.8048 2.03881,-0.8048 z m -0.05366,1.9798 q -0.321917,0 -0.547259,0.23607 -0.225343,0.23071 -0.225343,0.56872 0,0.33265 0.225343,0.56872 0.230708,0.23607 0.547259,0.23607 0.321918,0 0.54726,-0.23607 0.230707,-0.23607 0.230707,-0.56872 0,-0.33801 -0.225342,-0.56872 -0.225342,-0.23607 -0.552625,-0.23607 z"
       style="font-style:normal;font-variant:normal;font-weight:normal;font-stretch:normal;font-size:11.9944px;line-height:1.25;font-family:'Bauhaus 93';-inkscape-font-specification:'Bauhaus 93, Normal';font-variant-ligatures:normal;font-variant-caps:normal;font-variant-numeric:normal;font-variant-east-asian:normal;fill:#000000;fill-opacity:1;stroke:none;stroke-width:0.275023"
       id="path3130" />
    <path
       d="m 92.750085,126.10729 h 2.006618 v 3.02066 q 0,0.45605 0.380936,0.45605 0.37557,0 0.37557,-0.45605 v -3.02066 h 2.006618 v 2.9831 q 0,1.04086 -0.692122,1.75981 -0.692122,0.71359 -1.695432,0.71359 -1.142806,0 -1.840294,-0.83162 -0.541894,-0.6492 -0.541894,-1.80273 z"
       style="font-style:normal;font-variant:normal;font-weight:normal;font-stretch:normal;font-size:11.9944px;line-height:1.25;font-family:'Bauhaus 93';-inkscape-font-specification:'Bauhaus 93, Normal';font-variant-ligatures:normal;font-variant-caps:normal;font-variant-numeric:normal;font-variant-east-asian:normal;fill:#000000;fill-opacity:1;stroke:none;stroke-width:0.275023"
       id="path3132" />
    <path
       d="m 100.48147,124.05775 v 2.04954 h 0.90137 v 2.11929 h -0.90137 q 0,0.63847 0.19851,0.87991 0.20388,0.24143 0.74041,0.24143 v 2.10856 q -0.15559,0.006 -0.2307,0.006 -0.6814,0 -1.287673,-0.31655 -0.600913,-0.31655 -0.965753,-0.85845 -0.461415,-0.69212 -0.461415,-1.83494 v -4.39416 z"
       style="font-style:normal;font-variant:normal;font-weight:normal;font-stretch:normal;font-size:11.9944px;line-height:1.25;font-family:'Bauhaus 93';-inkscape-font-specification:'Bauhaus 93, Normal';font-variant-ligatures:normal;font-variant-caps:normal;font-variant-numeric:normal;font-variant-east-asian:normal;fill:#000000;fill-opacity:1;stroke:none;stroke-width:0.275023"
       id="path3134" />
    <path
       d="m 104.90247,125.9195 q 1.13744,0 1.9476,0.8209 0.81552,0.81552 0.81552,1.95832 0,1.1589 -0.82625,1.97443 -0.82089,0.81552 -1.98516,0.81552 -1.16427,0 -1.99052,-0.81552 -0.82626,-0.82089 -0.82626,-1.97443 0,-1.17499 0.82626,-1.97442 0.82625,-0.8048 2.03881,-0.8048 z m -0.0537,1.9798 q -0.32192,0 -0.54726,0.23607 -0.22534,0.23071 -0.22534,0.56872 0,0.33265 0.22534,0.56872 0.23071,0.23607 0.54726,0.23607 0.32192,0 0.54726,-0.23607 0.23071,-0.23607 0.23071,-0.56872 0,-0.33801 -0.22534,-0.56872 -0.22535,-0.23607 -0.55263,-0.23607 z"
       style="font-style:normal;font-variant:normal;font-weight:normal;font-stretch:normal;font-size:11.9944px;line-height:1.25;font-family:'Bauhaus 93';-inkscape-font-specification:'Bauhaus 93, Normal';font-variant-ligatures:normal;font-variant-caps:normal;font-variant-numeric:normal;font-variant-east-asian:normal;fill:#000000;fill-opacity:1;stroke:none;stroke-width:0.275023"
       id="path3136" />
    <path
       d="m 113.27232,131.38137 h -2.00662 v -3.02066 q 0,-0.46141 -0.38094,-0.46141 -0.37557,0 -0.37557,0.46141 v 3.02066 h -2.00661 v -2.9831 q 0,-1.04624 0.69212,-1.75982 0.69212,-0.71895 1.69543,-0.71895 1.14817,0 1.84029,0.83162 0.5419,0.6492 0.5419,1.80811 z"
       style="font-style:normal;font-variant:normal;font-weight:normal;font-stretch:normal;font-size:11.9944px;line-height:1.25;font-family:'Bauhaus 93';-inkscape-font-specification:'Bauhaus 93, Normal';font-variant-ligatures:normal;font-variant-caps:normal;font-variant-numeric:normal;font-variant-east-asian:normal;fill:#000000;fill-opacity:1;stroke:none;stroke-width:0.275023"
       id="path3138" />
  </g>
</svg>
