<svg xmlns="http://www.w3.org/2000/svg" width="72.716mm" height="16.967mm" viewBox="0 0 72.715721 16.967003"><g><path fill="#fff" d="M11.409-93.04h61.988v12.095h-61.988z"/><g><path d="M-.002-.011h72.707v16.965h-72.707z" fill="#fff"/><g style="line-height:1.25" font-size="11.994" font-family="Bauhaus 93"><path d="M3.885 4.548v4.936q0 1.116-.633 1.845-.633.724-1.604.724-.284 0-.665-.123v-2.108q.161.07.295.07.429 0 .429-.692v-4.651z" style="-inkscape-font-specification:'Bauhaus 93, Normal';font-variant-ligatures:normal;font-variant-caps:normal;font-variant-numeric:normal;font-variant-east-asian:normal"/><path d="M7.528 6.41q1.137 0 1.947.821.815.815.815 1.958 0 1.159-.826 1.974-.821.815-1.985.815-1.164 0-1.99-.815-.826-.821-.826-1.974 0-1.175.826-1.974.826-.805 2.039-.805zm-.054 1.98q-.322 0-.547.236-.225.231-.225.569 0 .333.225.569.231.236.547.236.322 0 .547-.236.231-.236.231-.569 0-.338-.225-.569-.225-.236-.553-.236z" style="-inkscape-font-specification:'Bauhaus 93, Normal';font-variant-ligatures:normal;font-variant-caps:normal;font-variant-numeric:normal;font-variant-east-asian:normal"/><path d="M14.48 6.598v2.114q-.424 0-.585.161-.156.156-.198.622-.139 1.55-1.202 2.189-.563.333-1.599.333h-.279v-2.124h.091q.483 0 .687-.198.209-.204.241-.708.043-.821.15-1.153.113-.333.451-.66.59-.574 1.636-.574z" style="-inkscape-font-specification:'Bauhaus 93, Normal';font-variant-ligatures:normal;font-variant-caps:normal;font-variant-numeric:normal;font-variant-east-asian:normal"/><path d="M17.147 4.548v2.237q.51-.37 1.019-.37.773 0 1.223.558.456.558.456 1.507v3.39h-2.006v-2.827q0-.343-.075-.461-.07-.118-.279-.118-.338 0-.338.499v2.908h-2.006v-7.323z" style="-inkscape-font-specification:'Bauhaus 93, Normal';font-variant-ligatures:normal;font-variant-caps:normal;font-variant-numeric:normal;font-variant-east-asian:normal"/><path d="M21.02 6.598h2.006v3.02q0 .456.381.456.376 0 .376-.456v-3.02h2.006v2.983q0 1.041-.692 1.76-.692.714-1.695.714-1.143 0-1.84-.832-.542-.649-.542-1.803z" style="-inkscape-font-specification:'Bauhaus 93, Normal';font-variant-ligatures:normal;font-variant-caps:normal;font-variant-numeric:normal;font-variant-east-asian:normal"/><path d="M29.936 9.865v2.076q-.247.043-.451.043-1.207 0-2.012-.794-.805-.794-.805-1.99 0-1.164.81-1.974.815-.81 1.98-.81 1.298 0 2.044.762.751.756.751 2.071v2.623h-2.006v-2.478q0-.424-.209-.676-.204-.252-.553-.252-.317 0-.547.231-.231.231-.231.547 0 .333.209.547.209.215.531.215.263 0 .488-.139z" style="-inkscape-font-specification:'Bauhaus 93, Normal';font-variant-ligatures:normal;font-variant-caps:normal;font-variant-numeric:normal;font-variant-east-asian:normal"/><path d="M36.17 11.871v-5.279q0-.982.595-1.604.595-.622 1.545-.622 1.127 0 1.733 1.035.37-.558.794-.794.424-.241 1.046-.241.987 0 1.513.622.526.622.526 1.792v5.091h-2.178v-4.764q0-.354-.059-.467-.054-.118-.225-.118-.322 0-.322.547v4.801h-2.178v-4.764q0-.349-.059-.467-.059-.118-.231-.118-.322 0-.322.585v4.764z" style="-inkscape-font-specification:'Bauhaus 93, Normal';font-variant-ligatures:normal;font-variant-caps:normal;font-variant-numeric:normal;font-variant-east-asian:normal"/><path d="M47.634 6.41q1.137 0 1.947.821.815.815.815 1.958 0 1.159-.826 1.974-.821.815-1.985.815-1.164 0-1.99-.815-.826-.821-.826-1.974 0-1.175.826-1.974.826-.805 2.039-.805zm-.054 1.98q-.322 0-.547.236-.225.231-.225.569 0 .333.225.569.231.236.547.236.322 0 .547-.236.231-.236.231-.569 0-.338-.225-.569-.225-.236-.553-.236z" style="-inkscape-font-specification:'Bauhaus 93, Normal';font-variant-ligatures:normal;font-variant-caps:normal;font-variant-numeric:normal;font-variant-east-asian:normal"/><path d="M51.234 6.598h2.006v3.02q0 .456.381.456.376 0 .376-.456v-3.02h2.006v2.983q0 1.041-.692 1.76-.692.714-1.695.714-1.143 0-1.84-.832-.542-.649-.542-1.803z" style="-inkscape-font-specification:'Bauhaus 93, Normal';font-variant-ligatures:normal;font-variant-caps:normal;font-variant-numeric:normal;font-variant-east-asian:normal"/><path d="M58.964 4.548v2.049h.901v2.119h-.901q0 .638.198.88.204.241.74.241v2.108l-.231.005q-.681 0-1.288-.317-.601-.317-.966-.858-.461-.692-.461-1.835v-4.394z" style="-inkscape-font-specification:'Bauhaus 93, Normal';font-variant-ligatures:normal;font-variant-caps:normal;font-variant-numeric:normal;font-variant-east-asian:normal"/><path d="M63.385 6.41q1.137 0 1.947.821.815.815.815 1.958 0 1.159-.826 1.974-.821.815-1.985.815-1.164 0-1.99-.815-.826-.821-.826-1.974 0-1.175.826-1.974.826-.805 2.039-.805zm-.054 1.98q-.322 0-.547.236-.225.231-.225.569 0 .333.225.569.231.236.547.236.322 0 .547-.236.231-.236.231-.569 0-.338-.225-.569-.225-.236-.553-.236z" style="-inkscape-font-specification:'Bauhaus 93, Normal';font-variant-ligatures:normal;font-variant-caps:normal;font-variant-numeric:normal;font-variant-east-asian:normal"/><path d="M71.754 11.871h-2.006v-3.02q0-.461-.381-.461-.376 0-.376.461v3.02h-2.006v-2.983q0-1.046.692-1.76.692-.719 1.695-.719 1.148 0 1.84.832.542.649.542 1.808z" style="-inkscape-font-specification:'Bauhaus 93, Normal';font-variant-ligatures:normal;font-variant-caps:normal;font-variant-numeric:normal;font-variant-east-asian:normal"/></g></g></g></svg>